<svg xmlns="http://www.w3.org/2000/svg" xml:space="preserve" width="230" height="236.016"><defs><clipPath clipPathUnits="userSpaceOnUse" id="a"><path d="M0 177.012h172.5V0H0Z"/></clipPath></defs><g clip-path="url(#a)" transform="matrix(1.33333 0 0 -1.33333 0 236.016)"><path d="M0 0c-.504-.337-1.08-.259-1.727.233-.181 1.009-.673 2.161-1.475 3.455a21.456 21.456 0 0 1-2.367 3.105l.387.311c1.889-.725 3.351-1.618 4.387-2.679C.059 3.545.537 2.652.641 1.747.719.918.505.336 0 0m3.824-6.521c-.078.906-.363 1.501-.854 1.786-.518.414-1.617.737-3.299.97v.62c1.63-.077 3.247-.168 4.851-.271.336 0 .57.059.7.175.129.116.193.316.193.601V8.54h-7.259c-1.837-.026-3.778-.208-5.822-.544l-.971 1.98c1.423-.156 3.145-.259 5.163-.311h8.889c0 1.915-.091 3.494-.271 4.736 1.811-.544 2.923-.97 3.337-1.281.337-.232.311-.466-.077-.698l-.621-.389V9.665h1.785l.739 1.087c.05.052.116.143.193.272.362.543.634.815.815.815.259 0 .809-.375 1.65-1.125.841-.751 1.262-1.269 1.262-1.553-.078-.414-.402-.621-.97-.621H7.783V-2.834c0-1.189-.207-2.018-.621-2.483-.543-.647-1.656-1.049-3.338-1.204M-7.86 14.44l-.97 1.98c1.423-.155 3.143-.26 5.162-.311H.68v5.706h-2.64a25.606 25.606 0 0 1-4.735-.544l-1.01 1.98c1.423-.155 3.144-.259 5.163-.311H.68c0 2.485-.13 4.516-.388 6.095 1.914-.569 3.092-1.01 3.532-1.32.336-.233.311-.479-.078-.737l-.698-.427V22.94H7.86l.777 1.126c.078.104.181.246.31.427.337.466.583.699.739.699.257 0 .834-.388 1.726-1.165.894-.776 1.34-1.306 1.34-1.59-.104-.416-.44-.622-1.01-.622H3.048v-5.706h6.016l.777 1.164c.051.079.141.207.271.389.363.517.621.776.777.776.257 0 .84-.402 1.747-1.204.905-.801 1.358-1.345 1.358-1.63-.078-.414-.389-.621-.931-.621h-15.1a39.395 39.395 0 0 1-5.823-.543m-8.85-12.227h5.24v10.52h-5.24zm0 11.683h5.24V24.26h-5.24zm-1.902-17.234a.776.776 0 0 0-.563.252c-.169.168-.253.343-.253.524.234 3.338.375 6.703.428 10.092v11.374c0 3.26-.169 5.912-.505 7.957l3.299-1.436h4.348l.583.776c.05.078.141.181.271.311.258.336.466.505.621.505.258 0 .796-.337 1.611-1.009.815-.674 1.222-1.153 1.222-1.437-.259-.363-.789-.621-1.591-.776v-15.1c.051-3.209.156-6.25.311-9.122-.182-.259-.512-.511-.99-.757-.48-.246-.912-.369-1.3-.369-.337 0-.505.259-.505.777.025.129.052.31.077.544.026.18.052.336.078.465v.893h-5.24V-.077c.025-.26.039-.57.039-.932.051-.57.09-.984.116-1.242-.103-.26-.324-.492-.66-.699a2.58 2.58 0 0 0-1.397-.388" style="fill:#231916;fill-opacity:1;fill-rule:nonzero;stroke:none" transform="translate(62.451 109.5)"/><path d="M128.344 126.541h7.763v7.22h-7.763zm10.654-22.34c-.271-.556-.809-.718-1.61-.484-.88 1.087-2.265 2.276-4.154 3.57-1.76 1.19-3.481 2.148-5.163 2.873l.273.505c2.768-.363 5.085-.985 6.947-1.863 1.527-.751 2.614-1.592 3.261-2.524.569-.828.718-1.519.446-2.077m-12.635 18.535c-.414 0-.621.259-.621.776.104.958.181 2.187.234 3.688v2.252c0 2.872-.143 5.162-.427 6.87l2.988-1.397h7.182l.582.776c.052.052.129.143.232.272.285.336.505.504.66.504.259 0 .796-.33 1.612-.989.814-.66 1.222-1.133 1.222-1.417-.208-.337-.737-.596-1.591-.776v-3.183c.051-2.614.128-4.672.233-6.172-.13-.233-.44-.46-.932-.679-.492-.221-.931-.331-1.32-.331-.311 0-.466.259-.466.777.026.103.052.259.078.466.026.155.051.284.077.387v.855h-7.762v-1.824c0-.156-.208-.337-.621-.544a3.167 3.167 0 0 0-1.36-.311m-8.112 5.474c1.061 1.397 1.889 3.052 2.484 4.969h-5.667a4.938 4.938 0 0 0-.155-.273c-.932-1.682-1.644-2.924-2.136-3.726 2.097-.155 3.921-.479 5.474-.97m1.397-12.208c-.31-.35-.763-.421-1.358-.214-.57.802-1.515 1.67-2.834 2.6-1.217.855-2.394 1.528-3.532 2.019l.271.428c1.992-.105 3.65-.453 4.969-1.049 1.294 1.683 2.187 3.196 2.679 4.542 2.717-1.424 3.661-2.161 2.833-2.213l-.582-.038c-.828-.751-2.11-1.708-3.843-2.873.802-.543 1.319-1.139 1.553-1.785.207-.596.155-1.068-.156-1.417m3.028-13.062a.587.587 0 0 0-.466.233.82.82 0 0 0-.193.544c.128 1.449.218 3.389.271 5.822v3.299c-1.631-.104-4.322-.272-8.074-.504-1.579-.104-2.782-.182-3.61-.234-.233-.465-.543-.737-.931-.814l-1.825 3.143c1.501-.026 4.774-.013 9.821.04h1.319c.88.672 1.903 1.526 3.067 2.561 2.302 2.07 3.96 4.024 4.968 5.861 1.63-.801 2.64-1.384 3.028-1.746.31-.259.259-.427-.156-.505l-.698-.116c-1.915-1.916-4.645-3.921-8.19-6.016 3.105.05 7.53.129 13.275.232-1.345 1.216-2.678 2.199-3.998 2.95l.311.427c2.329-.518 4.23-1.268 5.706-2.251 1.216-.803 2.031-1.695 2.445-2.679.389-.853.407-1.527.059-2.018-.35-.491-.874-.57-1.573-.233-.388.906-1.087 1.889-2.096 2.951a768.509 768.509 0 0 0-10.403-.855v-3.144c.052-2.562.129-4.581.233-6.055-.13-.234-.388-.427-.777-.582-.439-.207-.944-.311-1.513-.311m-15.449.543-.388.544c1.087.518 2.225 1.191 3.416 2.018 2.561 1.734 4.411 3.533 5.551 5.396l1.785-1.514c.724-.388 1.151-.686 1.281-.893.103-.207-.039-.324-.427-.35h-.66c-1.19-.957-2.756-1.915-4.697-2.872a35.486 35.486 0 0 0-5.861-2.329m-.311 17.041-.193.659c4.398 1.191 7.775 3.002 10.131 5.435-1.294.673-2.809 1.268-4.542 1.786-.466-.776-.88-1.45-1.243-2.018-.673-.26-1.474-.143-2.406.348.828 1.112 2.122 3.261 3.882 6.445h-1.863c-1.036-.027-2.122-.208-3.261-.544l-1.009 1.941c1.242-.155 2.742-.26 4.502-.311h2.174c.906 1.682 1.515 3.183 1.825 4.502 1.655-.414 2.665-.75 3.027-1.008.285-.207.207-.414-.233-.622l-.737-.31a40.41 40.41 0 0 0-.777-1.553c-.207-.44-.375-.776-.504-1.009h4.93l.737.854c.052.052.117.129.195.233.361.413.634.621.814.621.234 0 .693-.369 1.378-1.106.686-.738 1.029-1.249 1.029-1.533-.208-.234-.711-.389-1.514-.466-.777-2.045-1.785-3.869-3.028-5.474 1.087-.569 1.837-1.216 2.251-1.94.337-.648.37-1.178.098-1.592-.271-.414-.718-.517-1.339-.31-.595.672-1.502 1.383-2.718 2.134-2.716-2.484-6.585-4.205-11.606-5.162M128.265 61.846h7.763v7.22h-7.763zm10.654-22.339c-.272-.557-.809-.718-1.61-.486-.88 1.087-2.265 2.278-4.154 3.572-1.76 1.189-3.481 2.147-5.163 2.872l.273.505c2.768-.363 5.085-.984 6.947-1.864 1.527-.751 2.614-1.592 3.261-2.523.569-.827.718-1.52.446-2.076m-12.635 18.535c-.414 0-.621.258-.621.776.104.957.181 2.187.233 3.688v2.251c0 2.873-.142 5.163-.426 6.871l2.988-1.398h7.182l.582.777c.051.051.129.141.232.271.285.336.505.505.66.505.259 0 .796-.33 1.612-.99.814-.66 1.222-1.132 1.222-1.417-.208-.336-.737-.596-1.592-.777v-3.182c.052-2.614.129-4.671.234-6.172-.13-.233-.441-.46-.932-.68-.492-.219-.931-.329-1.32-.329-.311 0-.466.258-.466.776.025.103.052.258.078.465.026.156.051.285.077.389v.854h-7.762v-1.825c0-.155-.208-.336-.621-.543a3.151 3.151 0 0 0-1.36-.31m-8.112 5.472c1.06 1.398 1.889 3.054 2.484 4.969h-5.667a5.116 5.116 0 0 0-.155-.271c-.932-1.683-1.645-2.925-2.136-3.727 2.097-.155 3.921-.479 5.474-.971m1.397-12.208c-.31-.348-.763-.42-1.358-.212-.57.801-1.515 1.668-2.834 2.6-1.217.854-2.394 1.527-3.532 2.019l.271.426c1.992-.103 3.65-.453 4.969-1.047 1.294 1.681 2.186 3.195 2.679 4.541 2.716-1.423 3.661-2.161 2.833-2.212l-.582-.039c-.828-.751-2.11-1.708-3.843-2.872.802-.544 1.319-1.14 1.553-1.787.207-.595.155-1.067-.156-1.417m3.028-13.061a.59.59 0 0 0-.466.233.82.82 0 0 0-.194.543c.129 1.45.219 3.39.272 5.823v3.299l-8.074-.505c-1.579-.103-2.782-.18-3.611-.232-.232-.466-.543-.737-.93-.815l-1.825 3.144c1.501-.026 4.774-.014 9.821.038h1.319c.88.673 1.903 1.528 3.067 2.563 2.302 2.07 3.96 4.023 4.968 5.861 1.63-.803 2.64-1.385 3.028-1.747.31-.259.258-.427-.156-.505l-.698-.116c-1.915-1.915-4.645-3.92-8.19-6.017 3.105.052 7.53.129 13.275.234-1.346 1.216-2.679 2.199-3.998 2.95l.311.427c2.329-.519 4.23-1.269 5.706-2.252 1.215-.802 2.031-1.696 2.445-2.678.389-.855.407-1.527.059-2.019-.35-.492-.874-.569-1.573-.233-.388.906-1.087 1.889-2.096 2.95a776.373 776.373 0 0 0-10.403-.853v-3.145c.052-2.561.129-4.58.233-6.056-.13-.232-.388-.426-.777-.582-.439-.207-.944-.31-1.513-.31m-15.45.544-.387.543c1.087.517 2.225 1.19 3.416 2.018 2.561 1.734 4.411 3.533 5.551 5.396l1.785-1.514c.724-.388 1.151-.686 1.281-.892.102-.208-.039-.325-.427-.35h-.66c-1.19-.958-2.756-1.915-4.697-2.872a35.373 35.373 0 0 0-5.862-2.329m-.31 17.04-.193.66c4.398 1.19 7.775 3.002 10.13 5.435-1.294.672-2.808 1.267-4.542 1.785a86.334 86.334 0 0 0-1.242-2.019c-.673-.259-1.474-.142-2.406.35.828 1.112 2.122 3.261 3.882 6.443h-1.863c-1.036-.026-2.123-.207-3.261-.543l-1.009 1.941c1.242-.156 2.742-.259 4.502-.311h2.174c.906 1.682 1.514 3.183 1.825 4.503 1.655-.414 2.665-.751 3.027-1.01.284-.207.207-.414-.233-.621l-.737-.31c-.13-.285-.388-.802-.777-1.552a18.368 18.368 0 0 0-.504-1.01h4.93l.737.855c.052.05.117.129.195.232.361.414.633.621.814.621.234 0 .693-.369 1.378-1.106.686-.738 1.029-1.249 1.029-1.534-.208-.232-.712-.387-1.514-.465-.777-2.044-1.785-3.869-3.028-5.473 1.087-.57 1.837-1.217 2.251-1.941.337-.647.369-1.178.098-1.591-.271-.415-.718-.519-1.339-.311-.596.672-1.502 1.384-2.718 2.135-2.716-2.484-6.586-4.206-11.606-5.163" style="fill:#231916;fill-opacity:1;fill-rule:nonzero;stroke:none"/><path d="M0 0s-7.027-19.256-16.778-7.543" style="fill:none;stroke:#231916;stroke-width:.75;stroke-linecap:round;stroke-linejoin:miter;stroke-miterlimit:10;stroke-dasharray:none;stroke-opacity:1" transform="translate(61.484 62.696)"/><path d="M0 0s-8.321-21.765-19.696-11.729" style="fill:none;stroke:#231916;stroke-width:.75;stroke-linecap:round;stroke-linejoin:miter;stroke-miterlimit:10;stroke-dasharray:none;stroke-opacity:1" transform="translate(52.169 56.123)"/><path d="M0 0c-2.742.237-5.724-1.611-6.445-4.567-.72-2.957-1.223-7.547-5.896-11.867-3.925-3.629-7.385-4.135-12.341-3.333" style="fill:none;stroke:#231916;stroke-width:.75;stroke-linecap:round;stroke-linejoin:miter;stroke-miterlimit:10;stroke-dasharray:none;stroke-opacity:1" transform="translate(80.365 69.032)"/></g></svg>