<?xml version="1.0" encoding="UTF-8" standalone="no"?>
<svg
   xmlns:dc="http://purl.org/dc/elements/1.1/"
   xmlns:cc="http://creativecommons.org/ns#"
   xmlns:rdf="http://www.w3.org/1999/02/22-rdf-syntax-ns#"
   xmlns:svg="http://www.w3.org/2000/svg"
   xmlns="http://www.w3.org/2000/svg"
   xmlns:sodipodi="http://sodipodi.sourceforge.net/DTD/sodipodi-0.dtd"
   xmlns:inkscape="http://www.inkscape.org/namespaces/inkscape"
   version="1.1"
   id="svg2"
   xml:space="preserve"
   width="230"
   height="236.01601"
   viewBox="0 0 230 236.01601"
   sodipodi:docname="LOGO-06.ai"><metadata
     id="metadata8"><rdf:RDF><cc:Work
         rdf:about=""><dc:format>image/svg+xml</dc:format><dc:type
           rdf:resource="http://purl.org/dc/dcmitype/StillImage" /></cc:Work></rdf:RDF></metadata><defs
     id="defs6"><clipPath
       clipPathUnits="userSpaceOnUse"
       id="clipPath18"><path
         d="M 0,177.012 H 172.5 V 0 H 0 Z"
         id="path16" /></clipPath></defs><sodipodi:namedview
     pagecolor="#ffffff"
     bordercolor="#666666"
     borderopacity="1"
     objecttolerance="10"
     gridtolerance="10"
     guidetolerance="10"
     inkscape:pageopacity="0"
     inkscape:pageshadow="2"
     inkscape:window-width="640"
     inkscape:window-height="480"
     id="namedview4" /><g
     id="g10"
     inkscape:groupmode="layer"
     inkscape:label="LOGO-06"
     transform="matrix(1.3333333,0,0,-1.3333333,0,236.016)"><g
       id="g12"><g
         id="g14"
         clip-path="url(#clipPath18)"><g
           id="g20"
           transform="translate(62.4512,109.4998)"><path
             d="M 0,0 C -0.504,-0.337 -1.08,-0.259 -1.727,0.233 -1.908,1.242 -2.4,2.394 -3.202,3.688 -3.9,4.8 -4.69,5.835 -5.569,6.793 l 0.387,0.311 C -3.293,6.379 -1.831,5.486 -0.795,4.425 0.059,3.545 0.537,2.652 0.641,1.747 0.719,0.918 0.505,0.336 0,0 m 3.824,-6.521 c -0.078,0.906 -0.363,1.501 -0.854,1.786 -0.518,0.414 -1.617,0.737 -3.299,0.97 v 0.62 c 1.63,-0.077 3.247,-0.168 4.851,-0.271 0.336,0 0.57,0.059 0.7,0.175 0.129,0.116 0.193,0.316 0.193,0.601 V 8.54 H -1.844 C -3.681,8.514 -5.622,8.332 -7.666,7.996 l -0.971,1.98 C -7.214,9.82 -5.492,9.717 -3.474,9.665 h 8.889 c 0,1.915 -0.091,3.494 -0.271,4.736 1.811,-0.544 2.923,-0.97 3.337,-1.281 0.337,-0.232 0.311,-0.466 -0.077,-0.698 L 7.783,12.033 V 9.665 h 1.785 l 0.739,1.087 c 0.05,0.052 0.116,0.143 0.193,0.272 0.362,0.543 0.634,0.815 0.815,0.815 0.259,0 0.809,-0.375 1.65,-1.125 C 13.806,9.963 14.227,9.445 14.227,9.161 14.149,8.747 13.825,8.54 13.257,8.54 H 7.783 V -2.834 C 7.783,-4.023 7.576,-4.852 7.162,-5.317 6.619,-5.964 5.506,-6.366 3.824,-6.521 M -7.86,14.44 -8.83,16.42 c 1.423,-0.155 3.143,-0.26 5.162,-0.311 H 0.68 v 5.706 h -2.64 c -1.527,-0.026 -3.105,-0.208 -4.735,-0.544 l -1.01,1.98 c 1.423,-0.155 3.144,-0.259 5.163,-0.311 H 0.68 c 0,2.485 -0.13,4.516 -0.388,6.095 1.914,-0.569 3.092,-1.01 3.532,-1.32 C 4.16,27.482 4.135,27.236 3.746,26.978 L 3.048,26.551 V 22.94 H 7.86 l 0.777,1.126 c 0.078,0.104 0.181,0.246 0.31,0.427 0.337,0.466 0.583,0.699 0.739,0.699 0.257,0 0.834,-0.388 1.726,-1.165 0.894,-0.776 1.34,-1.306 1.34,-1.59 -0.104,-0.416 -0.44,-0.622 -1.01,-0.622 H 3.048 v -5.706 h 6.016 l 0.777,1.164 c 0.051,0.079 0.141,0.207 0.271,0.389 0.363,0.517 0.621,0.776 0.777,0.776 0.257,0 0.84,-0.402 1.747,-1.204 0.905,-0.801 1.358,-1.345 1.358,-1.63 -0.078,-0.414 -0.389,-0.621 -0.931,-0.621 h -15.1 C -3.875,14.957 -5.816,14.776 -7.86,14.44 M -16.71,2.213 h 5.24 v 10.52 h -5.24 z m 0,11.683 h 5.24 V 24.26 h -5.24 z m -1.902,-17.234 c -0.207,0 -0.395,0.083 -0.563,0.252 -0.169,0.168 -0.253,0.343 -0.253,0.524 0.234,3.338 0.375,6.703 0.428,10.092 v 11.374 c 0,3.26 -0.169,5.912 -0.505,7.957 l 3.299,-1.436 h 4.348 l 0.583,0.776 c 0.05,0.078 0.141,0.181 0.271,0.311 0.258,0.336 0.466,0.505 0.621,0.505 0.258,0 0.796,-0.337 1.611,-1.009 0.815,-0.674 1.222,-1.153 1.222,-1.437 -0.259,-0.363 -0.789,-0.621 -1.591,-0.776 v -15.1 c 0.051,-3.209 0.156,-6.25 0.311,-9.122 -0.182,-0.259 -0.512,-0.511 -0.99,-0.757 -0.48,-0.246 -0.912,-0.369 -1.3,-0.369 -0.337,0 -0.505,0.259 -0.505,0.777 0.025,0.129 0.052,0.31 0.077,0.544 0.026,0.18 0.052,0.336 0.078,0.465 v 0.893 h -5.24 v -1.203 c 0.025,-0.26 0.039,-0.57 0.039,-0.932 0.051,-0.57 0.09,-0.984 0.116,-1.242 -0.103,-0.26 -0.324,-0.492 -0.66,-0.699 -0.414,-0.259 -0.88,-0.388 -1.397,-0.388"
             style="fill:#231916;fill-opacity:1;fill-rule:nonzero;stroke:none"
             id="path22" /></g><path
           d="m 128.344,126.541 h 7.763 v 7.22 h -7.763 z m 10.654,-22.34 c -0.271,-0.556 -0.809,-0.718 -1.61,-0.484 -0.88,1.087 -2.265,2.276 -4.154,3.57 -1.76,1.19 -3.481,2.148 -5.163,2.873 l 0.273,0.505 c 2.768,-0.363 5.085,-0.985 6.947,-1.863 1.527,-0.751 2.614,-1.592 3.261,-2.524 0.569,-0.828 0.718,-1.519 0.446,-2.077 m -12.635,18.535 c -0.414,0 -0.621,0.259 -0.621,0.776 0.104,0.958 0.181,2.187 0.234,3.688 v 2.252 c 0,2.872 -0.143,5.162 -0.427,6.87 l 2.988,-1.397 h 7.182 l 0.582,0.776 c 0.052,0.052 0.129,0.143 0.232,0.272 0.285,0.336 0.505,0.504 0.66,0.504 0.259,0 0.796,-0.33 1.612,-0.989 0.814,-0.66 1.222,-1.133 1.222,-1.417 -0.208,-0.337 -0.737,-0.596 -1.591,-0.776 v -3.183 c 0.051,-2.614 0.128,-4.672 0.233,-6.172 -0.13,-0.233 -0.44,-0.46 -0.932,-0.679 -0.492,-0.221 -0.931,-0.331 -1.32,-0.331 -0.311,0 -0.466,0.259 -0.466,0.777 0.026,0.103 0.052,0.259 0.078,0.466 0.026,0.155 0.051,0.284 0.077,0.387 v 0.855 h -7.762 v -1.824 c 0,-0.156 -0.208,-0.337 -0.621,-0.544 -0.441,-0.207 -0.894,-0.311 -1.36,-0.311 m -8.112,5.474 c 1.061,1.397 1.889,3.052 2.484,4.969 h -5.667 c -0.026,-0.053 -0.078,-0.143 -0.155,-0.273 -0.932,-1.682 -1.644,-2.924 -2.136,-3.726 2.097,-0.155 3.921,-0.479 5.474,-0.97 m 1.397,-12.208 c -0.31,-0.35 -0.763,-0.421 -1.358,-0.214 -0.57,0.802 -1.515,1.67 -2.834,2.6 -1.217,0.855 -2.394,1.528 -3.532,2.019 l 0.271,0.428 c 1.992,-0.105 3.65,-0.453 4.969,-1.049 1.294,1.683 2.187,3.196 2.679,4.542 2.717,-1.424 3.661,-2.161 2.833,-2.213 l -0.582,-0.038 c -0.828,-0.751 -2.11,-1.708 -3.843,-2.873 0.802,-0.543 1.319,-1.139 1.553,-1.785 0.207,-0.596 0.155,-1.068 -0.156,-1.417 m 3.028,-13.062 c -0.181,0 -0.336,0.077 -0.466,0.233 -0.13,0.155 -0.193,0.337 -0.193,0.544 0.128,1.449 0.218,3.389 0.271,5.822 v 3.299 c -1.631,-0.104 -4.322,-0.272 -8.074,-0.504 -1.579,-0.104 -2.782,-0.182 -3.61,-0.234 -0.233,-0.465 -0.543,-0.737 -0.931,-0.814 l -1.825,3.143 c 1.501,-0.026 4.774,-0.013 9.821,0.04 h 1.319 c 0.88,0.672 1.903,1.526 3.067,2.561 2.302,2.07 3.96,4.024 4.968,5.861 1.63,-0.801 2.64,-1.384 3.028,-1.746 0.31,-0.259 0.259,-0.427 -0.156,-0.505 l -0.698,-0.116 c -1.915,-1.916 -4.645,-3.921 -8.19,-6.016 3.105,0.05 7.53,0.129 13.275,0.232 -1.345,1.216 -2.678,2.199 -3.998,2.95 l 0.311,0.427 c 2.329,-0.518 4.23,-1.268 5.706,-2.251 1.216,-0.803 2.031,-1.695 2.445,-2.679 0.389,-0.853 0.407,-1.527 0.059,-2.018 -0.35,-0.491 -0.874,-0.57 -1.573,-0.233 -0.388,0.906 -1.087,1.889 -2.096,2.951 -2.251,-0.208 -5.719,-0.493 -10.403,-0.855 v -3.144 c 0.052,-2.562 0.129,-4.581 0.233,-6.055 -0.13,-0.234 -0.388,-0.427 -0.777,-0.582 -0.439,-0.207 -0.944,-0.311 -1.513,-0.311 m -15.449,0.543 -0.388,0.544 c 1.087,0.518 2.225,1.191 3.416,2.018 2.561,1.734 4.411,3.533 5.551,5.396 l 1.785,-1.514 c 0.724,-0.388 1.151,-0.686 1.281,-0.893 0.103,-0.207 -0.039,-0.324 -0.427,-0.35 h -0.66 c -1.19,-0.957 -2.756,-1.915 -4.697,-2.872 -1.967,-0.983 -3.92,-1.759 -5.861,-2.329 m -0.311,17.041 -0.193,0.659 c 4.398,1.191 7.775,3.002 10.131,5.435 -1.294,0.673 -2.809,1.268 -4.542,1.786 -0.466,-0.776 -0.88,-1.45 -1.243,-2.018 -0.673,-0.26 -1.474,-0.143 -2.406,0.348 0.828,1.112 2.122,3.261 3.882,6.445 h -1.863 c -1.036,-0.027 -2.122,-0.208 -3.261,-0.544 l -1.009,1.941 c 1.242,-0.155 2.742,-0.26 4.502,-0.311 h 2.174 c 0.906,1.682 1.515,3.183 1.825,4.502 1.655,-0.414 2.665,-0.75 3.027,-1.008 0.285,-0.207 0.207,-0.414 -0.233,-0.622 l -0.737,-0.31 c -0.13,-0.285 -0.388,-0.803 -0.777,-1.553 -0.207,-0.44 -0.375,-0.776 -0.504,-1.009 h 4.93 l 0.737,0.854 c 0.052,0.052 0.117,0.129 0.195,0.233 0.361,0.413 0.634,0.621 0.814,0.621 0.234,0 0.693,-0.369 1.378,-1.106 0.686,-0.738 1.029,-1.249 1.029,-1.533 -0.208,-0.234 -0.711,-0.389 -1.514,-0.466 -0.777,-2.045 -1.785,-3.869 -3.028,-5.474 1.087,-0.569 1.837,-1.216 2.251,-1.94 0.337,-0.648 0.37,-1.178 0.098,-1.592 -0.271,-0.414 -0.718,-0.517 -1.339,-0.31 -0.595,0.672 -1.502,1.383 -2.718,2.134 -2.716,-2.484 -6.585,-4.205 -11.606,-5.162"
           style="fill:#231916;fill-opacity:1;fill-rule:nonzero;stroke:none"
           id="path24" /><path
           d="m 128.265,61.846 h 7.763 v 7.22 h -7.763 z m 10.654,-22.339 c -0.272,-0.557 -0.809,-0.718 -1.61,-0.486 -0.88,1.087 -2.265,2.278 -4.154,3.572 -1.76,1.189 -3.481,2.147 -5.163,2.872 l 0.273,0.505 c 2.768,-0.363 5.085,-0.984 6.947,-1.864 1.527,-0.751 2.614,-1.592 3.261,-2.523 0.569,-0.827 0.718,-1.52 0.446,-2.076 m -12.635,18.535 c -0.414,0 -0.621,0.258 -0.621,0.776 0.104,0.957 0.181,2.187 0.233,3.688 v 2.251 c 0,2.873 -0.142,5.163 -0.426,6.871 l 2.988,-1.398 h 7.182 l 0.582,0.777 c 0.051,0.051 0.129,0.141 0.232,0.271 0.285,0.336 0.505,0.505 0.66,0.505 0.259,0 0.796,-0.33 1.612,-0.99 0.814,-0.66 1.222,-1.132 1.222,-1.417 -0.208,-0.336 -0.737,-0.596 -1.592,-0.777 v -3.182 c 0.052,-2.614 0.129,-4.671 0.234,-6.172 -0.13,-0.233 -0.441,-0.46 -0.932,-0.68 -0.492,-0.219 -0.931,-0.329 -1.32,-0.329 -0.311,0 -0.466,0.258 -0.466,0.776 0.025,0.103 0.052,0.258 0.078,0.465 0.026,0.156 0.051,0.285 0.077,0.389 v 0.854 h -7.762 v -1.825 c 0,-0.155 -0.208,-0.336 -0.621,-0.543 -0.441,-0.208 -0.894,-0.31 -1.36,-0.31 m -8.112,5.472 c 1.06,1.398 1.889,3.054 2.484,4.969 h -5.667 c -0.026,-0.052 -0.078,-0.142 -0.155,-0.271 -0.932,-1.683 -1.645,-2.925 -2.136,-3.727 2.097,-0.155 3.921,-0.479 5.474,-0.971 m 1.397,-12.208 c -0.31,-0.348 -0.763,-0.42 -1.358,-0.212 -0.57,0.801 -1.515,1.668 -2.834,2.6 -1.217,0.854 -2.394,1.527 -3.532,2.019 l 0.271,0.426 c 1.992,-0.103 3.65,-0.453 4.969,-1.047 1.294,1.681 2.186,3.195 2.679,4.541 2.716,-1.423 3.661,-2.161 2.833,-2.212 l -0.582,-0.039 c -0.828,-0.751 -2.11,-1.708 -3.843,-2.872 0.802,-0.544 1.319,-1.14 1.553,-1.787 0.207,-0.595 0.155,-1.067 -0.156,-1.417 m 3.028,-13.061 c -0.181,0 -0.336,0.078 -0.466,0.233 -0.13,0.156 -0.194,0.336 -0.194,0.543 0.129,1.45 0.219,3.39 0.272,5.823 v 3.299 c -1.631,-0.103 -4.322,-0.271 -8.074,-0.505 -1.579,-0.103 -2.782,-0.18 -3.611,-0.232 -0.232,-0.466 -0.543,-0.737 -0.93,-0.815 l -1.825,3.144 c 1.501,-0.026 4.774,-0.014 9.821,0.038 h 1.319 c 0.88,0.673 1.903,1.528 3.067,2.563 2.302,2.07 3.96,4.023 4.968,5.861 1.63,-0.803 2.64,-1.385 3.028,-1.747 0.31,-0.259 0.258,-0.427 -0.156,-0.505 l -0.698,-0.116 c -1.915,-1.915 -4.645,-3.92 -8.19,-6.017 3.105,0.052 7.53,0.129 13.275,0.234 -1.346,1.216 -2.679,2.199 -3.998,2.95 l 0.311,0.427 c 2.329,-0.519 4.23,-1.269 5.706,-2.252 1.215,-0.802 2.031,-1.696 2.445,-2.678 0.389,-0.855 0.407,-1.527 0.059,-2.019 -0.35,-0.492 -0.874,-0.569 -1.573,-0.233 -0.388,0.906 -1.087,1.889 -2.096,2.95 -2.251,-0.207 -5.719,-0.492 -10.403,-0.853 v -3.145 c 0.052,-2.561 0.129,-4.58 0.233,-6.056 -0.13,-0.232 -0.388,-0.426 -0.777,-0.582 -0.439,-0.207 -0.944,-0.31 -1.513,-0.31 m -15.45,0.544 -0.387,0.543 c 1.087,0.517 2.225,1.19 3.416,2.018 2.561,1.734 4.411,3.533 5.551,5.396 l 1.785,-1.514 c 0.724,-0.388 1.151,-0.686 1.281,-0.892 0.102,-0.208 -0.039,-0.325 -0.427,-0.35 h -0.66 c -1.19,-0.958 -2.756,-1.915 -4.697,-2.872 -1.967,-0.983 -3.92,-1.76 -5.862,-2.329 m -0.31,17.04 -0.193,0.66 c 4.398,1.19 7.775,3.002 10.13,5.435 -1.294,0.672 -2.808,1.267 -4.542,1.785 -0.465,-0.777 -0.879,-1.449 -1.242,-2.019 -0.673,-0.259 -1.474,-0.142 -2.406,0.35 0.828,1.112 2.122,3.261 3.882,6.443 h -1.863 c -1.036,-0.026 -2.123,-0.207 -3.261,-0.543 l -1.009,1.941 c 1.242,-0.156 2.742,-0.259 4.502,-0.311 h 2.174 c 0.906,1.682 1.514,3.183 1.825,4.503 1.655,-0.414 2.665,-0.751 3.027,-1.01 0.284,-0.207 0.207,-0.414 -0.233,-0.621 l -0.737,-0.31 c -0.13,-0.285 -0.388,-0.802 -0.777,-1.552 -0.207,-0.441 -0.375,-0.776 -0.504,-1.01 h 4.93 l 0.737,0.855 c 0.052,0.05 0.117,0.129 0.195,0.232 0.361,0.414 0.633,0.621 0.814,0.621 0.234,0 0.693,-0.369 1.378,-1.106 0.686,-0.738 1.029,-1.249 1.029,-1.534 -0.208,-0.232 -0.712,-0.387 -1.514,-0.465 -0.777,-2.044 -1.785,-3.869 -3.028,-5.473 1.087,-0.57 1.837,-1.217 2.251,-1.941 0.337,-0.647 0.369,-1.178 0.098,-1.591 -0.271,-0.415 -0.718,-0.519 -1.339,-0.311 -0.596,0.672 -1.502,1.384 -2.718,2.135 -2.716,-2.484 -6.586,-4.206 -11.606,-5.163"
           style="fill:#231916;fill-opacity:1;fill-rule:nonzero;stroke:none"
           id="path26" /><g
           id="g28"
           transform="translate(61.4839,62.6964)"><path
             d="M 0,0 C 0,0 -7.027,-19.256 -16.778,-7.543"
             style="fill:none;stroke:#231916;stroke-width:0.75;stroke-linecap:round;stroke-linejoin:miter;stroke-miterlimit:10;stroke-dasharray:none;stroke-opacity:1"
             id="path30" /></g><g
           id="g32"
           transform="translate(52.169,56.1226)"><path
             d="M 0,0 C 0,0 -8.321,-21.765 -19.696,-11.729"
             style="fill:none;stroke:#231916;stroke-width:0.75;stroke-linecap:round;stroke-linejoin:miter;stroke-miterlimit:10;stroke-dasharray:none;stroke-opacity:1"
             id="path34" /></g><g
           id="g36"
           transform="translate(80.3647,69.0317)"><path
             d="m 0,0 c -2.742,0.237 -5.724,-1.611 -6.445,-4.567 -0.72,-2.957 -1.223,-7.547 -5.896,-11.867 -3.925,-3.629 -7.385,-4.135 -12.341,-3.333"
             style="fill:none;stroke:#231916;stroke-width:0.75;stroke-linecap:round;stroke-linejoin:miter;stroke-miterlimit:10;stroke-dasharray:none;stroke-opacity:1"
             id="path38" /></g></g></g></g></svg>
